<?xml version="1.0" encoding="UTF-8" standalone="no"?>
<!-- Created with Inkscape (http://www.inkscape.org/) -->

<svg
   xmlns:dc="http://purl.org/dc/elements/1.1/"
   xmlns:cc="http://creativecommons.org/ns#"
   xmlns:rdf="http://www.w3.org/1999/02/22-rdf-syntax-ns#"
   xmlns:svg="http://www.w3.org/2000/svg"
   xmlns="http://www.w3.org/2000/svg"
   xmlns:sodipodi="http://sodipodi.sourceforge.net/DTD/sodipodi-0.dtd"
   xmlns:inkscape="http://www.inkscape.org/namespaces/inkscape"
   id="svg2"
   version="1.1"
   inkscape:version="0.91 r"
   xml:space="preserve"
   width="850mm"
   height="2060mm"
   viewBox="0 0 3011.8109 7299.2126"
   sodipodi:docname="rollup_ffii.svg"><metadata
     id="metadata8"><rdf:RDF><cc:Work
         rdf:about=""><dc:format>image/svg+xml</dc:format><dc:type
           rdf:resource="http://purl.org/dc/dcmitype/StillImage" /><dc:title></dc:title></cc:Work></rdf:RDF></metadata><defs
     id="defs6"><clipPath
       clipPathUnits="userSpaceOnUse"
       id="clipPath20"><path
         d="m 0,6434.646 2466.142,0 L 2466.142,0 0,0 0,6434.646 Z"
         id="path22"
         inkscape:connector-curvature="0" /></clipPath><clipPath
       clipPathUnits="userSpaceOnUse"
       id="clipPath136"><path
         d="m 0,6434.646 2466.142,0 L 2466.142,0 0,0 0,6434.646 Z"
         id="path138"
         inkscape:connector-curvature="0" /></clipPath></defs><sodipodi:namedview
     pagecolor="#ffffff"
     bordercolor="#666666"
     borderopacity="1"
     objecttolerance="10"
     gridtolerance="10"
     guidetolerance="10"
     inkscape:pageopacity="0"
     inkscape:pageshadow="2"
     inkscape:window-width="1366"
     inkscape:window-height="741"
     id="namedview4"
     showgrid="false"
     inkscape:zoom="0.05868229"
     inkscape:cx="781.46832"
     inkscape:cy="3042.5955"
     inkscape:window-x="0"
     inkscape:window-y="0"
     inkscape:window-maximized="1"
     inkscape:current-layer="g10"
     units="mm" /><g
     id="g10"
     inkscape:groupmode="layer"
     inkscape:label="RollUp_85x200_hellgrau_CoatedFORGA27"
     transform="matrix(1.25,0,0,-1.25,0,7299.2126)"><path
       d="m -8.200815e-5,1011.4994 2409.44878200815,0 0,1424.1437 -2409.44878200815,0 0,-1424.1437 z"
       style="fill:#48486e;fill-opacity:0.90303028;fill-rule:nonzero;stroke:none"
       id="path12-2"
       inkscape:connector-curvature="0" /><path
       d="m -8.1725209e-5,2376.6126 2409.448781725209,0 0,579.143 -2409.448781725209,0 0,-579.143 z"
       style="fill:#a83c3c;fill-opacity:1;fill-rule:nonzero;stroke:none"
       id="path12"
       inkscape:connector-curvature="0" /><g
       id="g3966"
       transform="matrix(1.2661059,0,0,1.2661059,-356.47403,-1044.8046)"><g
         id="g4914"
         transform="matrix(0.95475849,0,0,0.95475849,55.785987,130.04165)"><g
           id="g90"
           transform="translate(584.3149,2933.3594)"><path
             d="m 0,0 0,-35.271 18.7,0 c 7.899,0 13.732,1.511 17.496,4.536 3.764,3.023 5.648,7.652 5.648,13.886 C 41.844,-5.617 33.82,0 17.774,0 L 0,0 Z m 0,22.773 16.663,0 c 7.776,0 13.407,1.204 16.895,3.611 3.486,2.406 5.23,6.387 5.23,11.941 0,5.185 -1.897,8.903 -5.693,11.155 -3.795,2.253 -9.798,3.379 -18.006,3.379 L 0,52.859 0,22.773 Z m -28.698,53.601 42.121,0 c 19.193,0 33.126,-2.731 41.798,-8.193 8.67,-5.462 13.007,-14.15 13.007,-26.06 0,-8.086 -1.899,-14.72 -5.694,-19.903 -3.796,-5.185 -8.841,-8.302 -15.136,-9.351 l 0,-0.926 c 8.578,-1.913 14.766,-5.493 18.561,-10.738 3.796,-5.246 5.693,-12.22 5.693,-20.922 0,-12.344 -4.459,-21.972 -13.377,-28.884 -8.919,-6.912 -21.03,-10.368 -36.336,-10.368 l -50.637,0 0,135.345 z"
             style="fill:#ffffff;fill-opacity:1;fill-rule:nonzero;stroke:none"
             id="path92"
             inkscape:connector-curvature="0" /></g><g
           id="g94"
           transform="translate(902.1938,2874.3887)"><path
             d="m 0,0 -77.947,0 0,135.345 77.947,0 0,-23.515 -49.249,0 0,-29.716 45.824,0 0,-23.514 -45.824,0 0,-34.901 L 0,23.699 0,0 Z"
             style="fill:#ffffff;fill-opacity:1;fill-rule:nonzero;stroke:none"
             id="path96"
             inkscape:connector-curvature="0" /></g><g
           id="g98"
           transform="translate(1100.3755,2949.6523)"><path
             d="m 0,0 9.257,0 c 9.072,0 15.768,1.512 20.089,4.536 4.319,3.024 6.48,7.777 6.48,14.257 0,6.418 -2.207,10.984 -6.619,13.7 -4.413,2.716 -11.248,4.073 -20.506,4.073 L 0,36.566 0,0 Z m 0,-23.329 0,-51.935 -28.698,0 0,135.345 39.436,0 c 18.391,0 31.999,-3.349 40.825,-10.045 8.826,-6.697 13.239,-16.864 13.239,-30.503 0,-7.962 -2.192,-15.044 -6.573,-21.246 -4.382,-6.202 -10.585,-11.062 -18.607,-14.58 20.366,-30.427 33.635,-50.084 39.807,-58.971 l -31.846,0 -32.309,51.935 -15.274,0 z"
             style="fill:#ffffff;fill-opacity:1;fill-rule:nonzero;stroke:none"
             id="path100"
             inkscape:connector-curvature="0" /></g><g
           id="g102"
           transform="translate(1338.0854,2874.3887)"><path
             d="m 0,0 0,135.345 28.699,0 0,-111.646 54.897,0 L 83.596,0 0,0 Z"
             style="fill:#ffffff;fill-opacity:1;fill-rule:nonzero;stroke:none"
             id="path104"
             inkscape:connector-curvature="0" /></g><path
           d="m 1586.443,3009.733 28.697,0 0,-135.345 -28.697,0 0,135.345 z"
           style="fill:#ffffff;fill-opacity:1;fill-rule:nonzero;stroke:none"
           id="path106"
           inkscape:connector-curvature="0" /><g
           id="g108"
           transform="translate(1910.5249,2874.3887)"><path
             d="m 0,0 -36.475,0 -58.879,102.388 -0.832,0 c 1.172,-18.084 1.758,-30.983 1.758,-38.697 l 0,-63.691 -25.642,0 0,135.345 36.197,0 58.785,-101.37 0.649,0 C -25.365,51.564 -25.828,64 -25.828,71.283 l 0,64.062 25.828,0 L 0,0 Z"
             style="fill:#ffffff;fill-opacity:1;fill-rule:nonzero;stroke:none"
             id="path110"
             inkscape:connector-curvature="0" /></g></g></g><g
       id="g3832"
       transform="matrix(4.3411171,0,0,4.3411171,-4190.8866,-5280.0678)"><g
         transform="translate(1294.7515,2483.4756)"
         id="g112"><path
           inkscape:connector-curvature="0"
           id="path114"
           style="fill:#b6b8b9;fill-opacity:1;fill-rule:evenodd;stroke:none"
           d="m 0,0 -4.488,-9.428 -226.758,-0.039 0,-2.705 10.816,-5.408 0,-238.01 -12.17,-2.707 0,-5.408 59.502,0 0,5.408 -12.172,2.707 0,104.129 123.063,0 6.762,-9.467 2.705,0 0,50.035 -2.705,0 -6.762,-9.464 -123.063,0 0,79.787 180.791,-0.168 4.479,-9.301 2.705,0 L 2.705,0 0,0 Z" /></g><g
         transform="translate(1392.2222,2427.6299)"
         id="g116"><path
           inkscape:connector-curvature="0"
           id="path118"
           style="fill:#939294;fill-opacity:1;fill-rule:evenodd;stroke:none"
           d="m 0,0 -4.486,-9.426 -226.76,-0.041 0,-2.703 10.818,-5.41 0,-238.008 -12.172,-2.705 0,-5.408 59.502,0 0,5.408 -12.17,2.705 0,104.127 123.063,0 6.761,-9.467 2.704,0 0,50.039 -2.704,0 -6.761,-9.466 -123.063,0 0.254,79.785 180.535,0 4.479,-9.465 2.707,0 L 2.707,0 0,0 Z" /></g><g
         transform="translate(1325.2964,2374.8506)"
         id="g120"><path
           inkscape:connector-curvature="0"
           id="path122"
           style="fill:#636266;fill-opacity:1;fill-rule:evenodd;stroke:none"
           d="m 0,0 -56.785,-0.021 0,-2.704 10.818,-5.41 0,-238.01 -12.171,-2.703 0,-5.408 59.502,0 0,5.408 -12.17,2.703 0.09,238.069 10.633,5.447 L 0,0 Z" /></g><g
         transform="translate(1422.2983,2320.3838)"
         id="g124"><path
           inkscape:connector-curvature="0"
           id="path126"
           style="fill:#2f3033;fill-opacity:1;fill-rule:evenodd;stroke:none"
           d="m 0,0 -56.784,-0.02 0,-2.707 10.819,-5.408 0,-238.008 -12.17,-2.705 0,-5.408 59.502,0 0,5.408 -12.171,2.705 0.092,238.067 L -0.08,-2.629 0,0 Z" /></g></g><text
       xml:space="preserve"
       style="font-style:normal;font-weight:normal;font-size:125.34455872px;line-height:125%;font-family:sans-serif;letter-spacing:0px;word-spacing:0px;fill:#333333;fill-opacity:1;stroke:none;stroke-width:1px;stroke-linecap:butt;stroke-linejoin:miter;stroke-opacity:1"
       x="1202.674"
       y="-3403.6428"
       id="text4779"
       sodipodi:linespacing="125%"
       transform="scale(1,-1)"><tspan
         sodipodi:role="line"
         x="1218.9541"
         y="-3403.6428"
         id="tspan4783"
         style="font-style:normal;font-variant:normal;font-weight:bold;font-stretch:normal;font-family:'Open Sans';-inkscape-font-specification:'Open Sans Bold';text-align:center;text-anchor:middle;fill:#333333">Förderverein für eine  Freie </tspan><tspan
         sodipodi:role="line"
         x="1202.674"
         y="-3246.9622"
         id="tspan4785"
         style="font-style:normal;font-variant:normal;font-weight:bold;font-stretch:normal;font-family:'Open Sans';-inkscape-font-specification:'Open Sans Bold';text-align:center;text-anchor:middle;fill:#333333">Informationelle Infrastruktur e.V.</tspan></text>
<text
       xml:space="preserve"
       style="font-style:normal;font-weight:normal;font-size:165.17428589px;line-height:125%;font-family:sans-serif;letter-spacing:0px;word-spacing:0px;fill:#ffffff;fill-opacity:1;stroke:none;stroke-width:1px;stroke-linecap:butt;stroke-linejoin:miter;stroke-opacity:1"
       x="1206.5067"
       y="-1955.5765"
       id="text4806"
       sodipodi:linespacing="125%"
       transform="scale(1,-1)"><tspan
         sodipodi:role="line"
         x="1251.5275"
         y="-1955.5765"
         style="font-style:normal;font-variant:normal;font-weight:bold;font-stretch:normal;font-size:143.15106201px;font-family:'Open Sans';-inkscape-font-specification:'Open Sans Bold';text-align:center;letter-spacing:26.42788696px;text-anchor:middle;fill:#ffffff"
         id="tspan4857">BILDUNG UND </tspan><tspan
         sodipodi:role="line"
         x="1219.7207"
         y="-1776.6377"
         style="font-style:normal;font-variant:normal;font-weight:bold;font-stretch:normal;font-size:143.15106201px;font-family:'Open Sans';-inkscape-font-specification:'Open Sans Bold';text-align:center;letter-spacing:26.42788696px;text-anchor:middle;fill:#ffffff"
         id="tspan4810">VERBRAUCHERSCHUTZ</tspan><tspan
         sodipodi:role="line"
         x="1219.7207"
         y="-1597.6989"
         style="font-style:normal;font-variant:normal;font-weight:bold;font-stretch:normal;font-size:143.15106201px;font-family:'Open Sans';-inkscape-font-specification:'Open Sans Bold';text-align:center;letter-spacing:26.42788696px;text-anchor:middle;fill:#ffffff"
         id="tspan4853">IN DER DIGITALEN</tspan><tspan
         sodipodi:role="line"
         x="1219.7207"
         y="-1418.76"
         style="font-style:normal;font-variant:normal;font-weight:bold;font-stretch:normal;font-size:143.15106201px;font-family:'Open Sans';-inkscape-font-specification:'Open Sans Bold';text-align:center;letter-spacing:26.42788696px;text-anchor:middle;fill:#ffffff"
         id="tspan4855">WELT</tspan></text>
<g
       id="g4874"
       transform="translate(-98.2859,70.4)"><g
         transform="matrix(0.28749799,0,0,0.28749799,207.1547,-878.80884)"
         style="fill:#2f3033;fill-opacity:1"
         id="g3931"><g
           style="fill:#2f3033;fill-opacity:1"
           id="g24"
           transform="translate(751.2378,5187.4165)"><path
             d="m 0,0 c -79.96,0 -145.016,-65.037 -145.016,-145.014 0,-79.927 65.056,-145.007 145.016,-145.007 79.956,0 145.01,65.08 145.01,145.007 C 145.01,-65.037 79.956,0 0,0 m 0,-423.738 c -153.684,0 -278.726,125.058 -278.726,278.724 0,153.711 125.042,278.748 278.726,278.748 153.691,0 278.73,-125.037 278.73,-278.748 C 278.73,-298.68 153.691,-423.738 0,-423.738"
             style="fill:#2f3033;fill-opacity:1;fill-rule:nonzero;stroke:none"
             id="path26"
             inkscape:connector-curvature="0" /></g><g
           style="fill:#2f3033;fill-opacity:1"
           id="g28"
           transform="translate(1585.7368,4976.3149)"><path
             d="m 0,0 c 0,-66.418 -53.822,-120.25 -120.228,-120.25 -66.409,0 -120.249,53.832 -120.249,120.25 l 85.481,0 0,132.221 -85.481,0 0,91.642 c 0,140.444 -114.243,254.69 -254.676,254.69 l 0,-133.717 c 66.701,0 120.968,-54.287 120.968,-120.973 l 0,-91.642 -85.3,0 0,-132.221 85.3,0 c 0,-138.371 112.569,-250.955 250.925,-250.955 138.357,0 250.909,112.584 250.909,250.955 L 0,0 Z"
             style="fill:#2f3033;fill-opacity:1;fill-rule:nonzero;stroke:none"
             id="path30"
             inkscape:connector-curvature="0" /></g><g
           style="fill:#2f3033;fill-opacity:1"
           id="g32"
           transform="translate(1789.7065,5312.4497)"><path
             d="m 0,0 c -112.458,0 -203.941,-91.467 -203.941,-203.914 l 127.621,0 c 0,42.82 34.73,77.56 77.556,77.56 42.837,0 77.554,-34.74 77.554,-77.56 l 125.137,0 C 203.927,-91.467 112.446,0 0,0"
             style="fill:#2f3033;fill-opacity:1;fill-rule:nonzero;stroke:none"
             id="path34"
             inkscape:connector-curvature="0" /></g><g
           style="fill:#2f3033;fill-opacity:1"
           id="g36"
           transform="translate(878.5894,4423.645)"><path
             d="m 0,0 c 0,20.176 -2.335,34.207 -6.955,42.027 -4.575,7.854 -11.619,11.76 -21.063,11.76 -5.382,0 -10.548,-1.746 -15.627,-5.289 -5.071,-3.551 -9.407,-8.439 -13.064,-14.68 l 0,-72.148 c 6.917,-10.074 15.589,-15.139 26.127,-15.139 C -10.2,-53.469 0,-35.652 0,0 M 36.848,67.492 C 47.506,51.713 52.815,29.43 52.815,0.654 52.815,-16.971 50.08,-32.672 44.572,-46.539 39.108,-60.389 31.23,-71.232 20.94,-79.07 10.605,-86.898 -1.412,-90.805 -15.143,-90.805 c -17.172,0 -31.029,5.979 -41.566,18.006 l 0,-78.576 -50.889,-5.461 0,242.533 44.764,0 2.588,-18.994 c 6.669,8.332 14.23,14.518 22.7,18.492 8.491,3.967 17.007,5.969 25.612,5.969 21.906,0 38.187,-7.894 48.782,-23.672"
             style="fill:#2f3033;fill-opacity:1;fill-rule:nonzero;stroke:none"
             id="path38"
             inkscape:connector-curvature="0" /></g><g
           style="fill:#2f3033;fill-opacity:1"
           id="g40"
           transform="translate(1062.4644,4441.7017)"><path
             d="m 0,0 c -0.4,26.172 -9.642,39.281 -27.691,39.281 -8.806,0 -15.555,-3.154 -20.254,-9.496 -4.744,-6.359 -7.766,-17.039 -9.043,-32.064 L 0,-2.279 0,0 Z m 48.987,-32.877 -105.658,0 c 1.532,-14.367 5.472,-24.477 11.944,-30.277 6.432,-5.787 15.302,-8.707 26.721,-8.707 6.873,0 13.506,1.277 19.938,3.715 6.462,2.472 13.423,6.298 20.974,11.457 l 20.891,-28.374 c -19.922,-15.867 -42.194,-23.798 -66.625,-23.798 -27.728,0 -48.997,8.123 -63.825,24.453 -14.784,16.314 -22.185,38.224 -22.185,65.721 0,17.375 3.09,33.005 9.311,46.865 6.288,13.836 15.378,24.799 27.416,32.832 12.021,8.054 26.417,12.097 43.131,12.097 24.721,0 44.005,-7.714 57.987,-23.207 13.954,-15.466 20.91,-36.929 20.91,-64.388 0,-7.086 -0.325,-13.203 -0.93,-18.389"
             style="fill:#2f3033;fill-opacity:1;fill-rule:nonzero;stroke:none"
             id="path42"
             inkscape:connector-curvature="0" /></g><g
           style="fill:#2f3033;fill-opacity:1"
           id="g44"
           transform="translate(1276.6772,4501.272)"><path
             d="m 0,0 c 8.365,-9.012 12.541,-21.697 12.541,-38.01 l 0,-124.961 -50.867,0 0,116.268 c 0,8.588 -1.373,14.551 -4.034,17.869 -2.692,3.344 -6.704,4.994 -12.064,4.994 -10.324,0 -20.21,-7.414 -29.664,-22.224 l 0,-116.907 -50.855,0 0,171.041 44.436,0 3.538,-20.316 c 7.508,8.6 15.515,15.047 23.992,19.322 8.492,4.313 17.881,6.461 28.176,6.461 C -19.973,13.537 -8.403,9.002 0,0"
             style="fill:#2f3033;fill-opacity:1;fill-rule:nonzero;stroke:none"
             id="path46"
             inkscape:connector-curvature="0" /></g><g
           style="fill:#2f3033;fill-opacity:1"
           id="g48"
           transform="translate(1420.98,4520.9282)"><path
             d="m 0,0 0,-182.627 -52.818,0 0,182.627 -57.67,0 0,40.576 170.68,0 L 55.048,0 0,0 Z"
             style="fill:#2f3033;fill-opacity:1;fill-rule:nonzero;stroke:none"
             id="path50"
             inkscape:connector-curvature="0" /></g><g
           style="fill:#2f3033;fill-opacity:1"
           id="g52"
           transform="translate(1574.8999,4441.7017)"><path
             d="m 0,0 c -0.404,26.172 -9.653,39.281 -27.691,39.281 -8.799,0 -15.548,-3.154 -20.301,-9.496 C -52.731,23.426 -55.699,12.746 -57,-2.279 l 57,0 L 0,0 Z m 48.948,-32.877 -105.628,0 c 1.494,-14.367 5.486,-24.477 11.903,-30.277 6.44,-5.787 15.354,-8.707 26.771,-8.707 6.844,0 13.508,1.277 19.936,3.715 6.426,2.472 13.417,6.298 20.934,11.457 l 20.94,-28.374 c -19.928,-15.867 -42.2,-23.798 -66.625,-23.798 -27.736,0 -48.962,8.123 -63.83,24.453 -14.796,16.314 -22.189,38.224 -22.189,65.721 0,17.375 3.095,33.005 9.326,46.865 6.233,13.836 15.357,24.799 27.368,32.832 12.017,8.054 26.403,12.097 43.177,12.097 24.721,0 44.006,-7.714 57.948,-23.207 13.988,-15.466 20.949,-36.929 20.949,-64.388 0,-7.086 -0.336,-13.203 -0.98,-18.389"
             style="fill:#2f3033;fill-opacity:1;fill-rule:nonzero;stroke:none"
             id="path54"
             inkscape:connector-curvature="0" /></g><g
           style="fill:#2f3033;fill-opacity:1"
           id="g56"
           transform="translate(1760.0923,4509.645)"><path
             d="M 0,0 C 9.451,-3.439 18.381,-8.703 26.769,-15.795 L 4.513,-46.383 c -10.289,8.371 -21.064,12.578 -32.207,12.578 -11.358,0 -19.961,-4.207 -25.745,-12.578 -5.79,-8.383 -8.724,-21.914 -8.724,-40.576 0,-18.051 2.934,-30.814 8.724,-38.338 5.784,-7.484 14.137,-11.26 25.116,-11.26 5.984,0 11.367,0.959 16.12,2.887 4.69,1.943 9.965,5.149 15.749,9.686 l 23.223,-32.534 c -16.995,-13.546 -36.214,-20.287 -57.674,-20.287 -17.403,0 -32.432,3.69 -45.084,11.119 -12.705,7.381 -22.479,17.829 -29.295,31.221 -6.92,13.41 -10.336,29.152 -10.336,47.186 0,18.023 3.416,34.035 10.336,47.98 6.816,13.947 16.59,24.852 29.295,32.695 12.652,7.848 27.368,11.768 44.092,11.768 C -20.089,5.164 -9.445,3.43 0,0"
             style="fill:#2f3033;fill-opacity:1;fill-rule:nonzero;stroke:none"
             id="path58"
             inkscape:connector-curvature="0" /></g><g
           style="fill:#2f3033;fill-opacity:1"
           id="g60"
           transform="translate(1943.3706,4501.272)"><path
             d="m 0,0 c 8.353,-9.012 12.536,-21.697 12.536,-38.01 l 0,-124.961 -50.883,0 0,116.268 c 0,8.588 -1.361,14.551 -4.168,17.869 -2.813,3.344 -6.764,4.994 -11.902,4.994 -10.325,0 -20.214,-7.31 -29.655,-21.877 l 0,-117.254 -50.903,0 0,238.983 50.903,5.156 0,-91.141 c 7.068,7.942 14.625,13.842 22.536,17.715 7.96,3.844 16.845,5.795 26.731,5.795 C -19.977,13.537 -8.361,9.002 0,0"
             style="fill:#2f3033;fill-opacity:1;fill-rule:nonzero;stroke:none"
             id="path62"
             inkscape:connector-curvature="0" /></g><g
           style="fill:#2f3033;fill-opacity:1"
           id="g64"
           transform="translate(625.5454,4567.6294)"><path
             d="m 0,0 c -55.55,0 -102.329,-38.242 -115.308,-89.801 l 58.522,0 c 10.61,20.582 32.065,34.729 56.786,34.729 35.211,0 63.863,-28.647 63.863,-63.873 0,-35.194 -28.652,-63.844 -63.863,-63.844 -24.721,0 -46.176,14.125 -56.786,34.734 l -58.522,0 c 12.979,-51.558 59.758,-89.836 115.308,-89.836 65.594,0 118.925,53.356 118.925,118.946 C 118.925,-53.338 65.594,0 0,0"
             style="fill:#2f3033;fill-opacity:1;fill-rule:nonzero;stroke:none"
             id="path66"
             inkscape:connector-curvature="0" /></g><g
           style="fill:#2f3033;fill-opacity:1"
           id="g68"
           transform="translate(987.9468,4219.2173)"><path
             d="m 0,0 c 0,-8.432 -3.041,-15.088 -9.1,-19.906 -6.085,-4.867 -14.525,-7.278 -25.304,-7.278 -9.973,0 -18.758,1.867 -26.446,5.6 l 0,18.406 c 6.318,-2.836 11.657,-4.808 15.999,-5.973 4.371,-1.113 8.364,-1.718 11.976,-1.718 4.342,0 7.677,0.846 9.971,2.523 2.332,1.649 3.496,4.119 3.496,7.379 0,1.815 -0.52,3.473 -1.521,4.854 -1.017,1.453 -2.538,2.808 -4.516,4.121 -1.961,1.359 -6.027,3.43 -12.096,6.326 -5.703,2.695 -9.957,5.281 -12.854,7.734 -2.807,2.473 -5.072,5.342 -6.794,8.606 -1.731,3.283 -2.534,7.111 -2.534,11.465 0,8.271 2.769,14.787 8.366,19.476 5.621,4.737 13.347,7.084 23.226,7.084 4.825,0 9.445,-0.576 13.876,-1.709 4.372,-1.15 8.987,-2.773 13.781,-4.857 L -6.841,46.764 c -4.978,2.021 -9.063,3.463 -12.37,4.285 -3.209,0.777 -6.428,1.209 -9.558,1.209 -3.776,0 -6.629,-0.881 -8.639,-2.619 -2.026,-1.762 -3.02,-4.016 -3.02,-6.834 0,-1.737 0.446,-3.258 1.244,-4.586 0.81,-1.281 2.045,-2.551 3.859,-3.725 1.775,-1.213 5.95,-3.404 12.547,-6.576 8.721,-4.174 14.657,-8.303 17.911,-12.514 C -1.65,11.197 0,6.066 0,0"
             style="fill:#2f3033;fill-opacity:1;fill-rule:nonzero;stroke:none"
             id="path70"
             inkscape:connector-curvature="0" /></g><g
           style="fill:#2f3033;fill-opacity:1"
           id="g72"
           transform="translate(1179.9409,4286.5767)"><path
             d="m 0,0 0,-60.326 c 0,-6.904 -1.564,-12.969 -4.627,-18.164 -3.086,-5.149 -7.559,-9.158 -13.38,-11.905 -5.821,-2.767 -12.705,-4.148 -20.659,-4.148 -12.004,0 -21.299,3.076 -27.922,9.195 -6.683,6.133 -9.967,14.551 -9.967,25.239 l 0,60.109 19.683,0 0,-57.086 c 0,-7.205 1.448,-12.469 4.343,-15.82 2.899,-3.371 7.729,-5.065 14.39,-5.065 6.424,0 11.133,1.694 14.068,5.098 2.885,3.379 4.336,8.668 4.336,15.916 L -19.735,0 0,0 Z"
             style="fill:#2f3033;fill-opacity:1;fill-rule:nonzero;stroke:none"
             id="path74"
             inkscape:connector-curvature="0" /></g><g
           style="fill:#2f3033;fill-opacity:1"
           id="g76"
           transform="translate(1341.4224,4193.3208)"><path
             d="m 0,0 -22.462,73.143 -0.559,0 c 0.801,-14.879 1.245,-24.782 1.245,-29.758 l 0,-43.385 -17.686,0 0,93.256 26.895,0 22.102,-71.309 0.389,0 23.396,71.309 26.935,0 0,-93.256 -18.446,0 0,44.127 c 0,2.084 0.029,4.512 0.118,7.225 0.044,2.712 0.328,9.97 0.847,21.689 l -0.572,0 L 18.135,0 0,0 Z"
             style="fill:#2f3033;fill-opacity:1;fill-rule:nonzero;stroke:none"
             id="path78"
             inkscape:connector-curvature="0" /></g><g
           style="fill:#2f3033;fill-opacity:1"
           id="g80"
           transform="translate(1563.8101,4193.3208)"><path
             d="m 0,0 -22.436,73.143 -0.554,0 c 0.804,-14.879 1.2,-24.782 1.2,-29.758 l 0,-43.385 -17.677,0 0,93.256 26.93,0 22.098,-71.309 0.365,0 23.395,71.309 26.927,0 0,-93.256 -18.411,0 0,44.127 c 0,2.084 0,4.512 0.075,7.225 0.046,2.712 0.374,9.97 0.846,21.689 l -0.56,0 L 18.166,0 0,0 Z"
             style="fill:#2f3033;fill-opacity:1;fill-rule:nonzero;stroke:none"
             id="path82"
             inkscape:connector-curvature="0" /></g><path
           d="m 1746.72,4286.577 19.769,0 0,-93.256 -19.769,0 0,93.256 z"
           style="fill:#2f3033;fill-opacity:1;fill-rule:nonzero;stroke:none"
           id="path84"
           inkscape:connector-curvature="0" /><g
           style="fill:#2f3033;fill-opacity:1"
           id="g86"
           transform="translate(1925.1294,4193.3208)"><path
             d="m 0,0 -19.786,0 0,76.807 -25.317,0 0,16.449 70.464,0 0,-16.449 L 0,76.807 0,0 Z"
             style="fill:#2f3033;fill-opacity:1;fill-rule:nonzero;stroke:none"
             id="path88"
             inkscape:connector-curvature="0" /></g></g><text
         transform="scale(1,-1)"
         sodipodi:linespacing="125%"
         id="text4806-1"
         y="-587.14227"
         x="1603.4648"
         style="font-style:normal;font-weight:normal;font-size:150px;line-height:125%;font-family:sans-serif;letter-spacing:0px;word-spacing:0px;fill:#000000;fill-opacity:1;stroke:none;stroke-width:1px;stroke-linecap:butt;stroke-linejoin:miter;stroke-opacity:1"
         xml:space="preserve"><tspan
           id="tspan4835"
           style="font-style:normal;font-variant:normal;font-weight:bold;font-stretch:normal;font-size:80px;font-family:'Open Sans';-inkscape-font-specification:'Open Sans Bold';text-align:center;letter-spacing:24px;text-anchor:middle"
           y="-587.14227"
           x="1637.8555"
           sodipodi:role="line">Der FFII e.V. ist ein </tspan><tspan
           id="tspan4851"
           style="font-style:normal;font-variant:normal;font-weight:bold;font-stretch:normal;font-size:80px;font-family:'Open Sans';-inkscape-font-specification:'Open Sans Bold';text-align:center;letter-spacing:24px;text-anchor:middle"
           y="-487.14227"
           x="1615.4648"
           sodipodi:role="line">Hauptorganisator</tspan><tspan
           id="tspan4841"
           style="font-style:normal;font-variant:normal;font-weight:bold;font-stretch:normal;font-size:80px;font-family:'Open Sans';-inkscape-font-specification:'Open Sans Bold';text-align:center;letter-spacing:24px;text-anchor:middle"
           y="-387.14227"
           x="1615.4648"
           sodipodi:role="line">des OpenTechSummit.</tspan></text>
</g><text
       xml:space="preserve"
       style="font-style:normal;font-weight:normal;font-size:150px;line-height:125%;font-family:sans-serif;letter-spacing:0px;word-spacing:0px;fill:#000000;fill-opacity:1;stroke:none;stroke-width:1px;stroke-linecap:butt;stroke-linejoin:miter;stroke-opacity:1"
       x="1635.928"
       y="-572.57458"
       id="text4845"
       sodipodi:linespacing="125%"
       transform="scale(1,-1)"><tspan
         sodipodi:role="line"
         id="tspan4847"
         x="1635.928"
         y="-572.57458"></tspan><tspan
         sodipodi:role="line"
         x="1635.928"
         y="-385.07458"
         id="tspan4849" /></text>
</g></svg>