<?xml version="1.0" encoding="UTF-8" standalone="no"?>
<!-- Created with Inkscape (http://www.inkscape.org/) -->

<svg
   xmlns:dc="http://purl.org/dc/elements/1.1/"
   xmlns:cc="http://creativecommons.org/ns#"
   xmlns:rdf="http://www.w3.org/1999/02/22-rdf-syntax-ns#"
   xmlns:svg="http://www.w3.org/2000/svg"
   xmlns="http://www.w3.org/2000/svg"
   xmlns:sodipodi="http://sodipodi.sourceforge.net/DTD/sodipodi-0.dtd"
   xmlns:inkscape="http://www.inkscape.org/namespaces/inkscape"
   version="1.1"
   id="svg2"
   xml:space="preserve"
   width="800"
   height="800"
   viewBox="0 0 799.99999 799.99999"
   sodipodi:docname="ffii-logo.svg"
   inkscape:version="0.92.3 (2405546, 2018-03-11)"><metadata
     id="metadata8"><rdf:RDF><cc:Work
         rdf:about=""><dc:format>image/svg+xml</dc:format><dc:type
           rdf:resource="http://purl.org/dc/dcmitype/StillImage" /><dc:title></dc:title></cc:Work></rdf:RDF></metadata><defs
     id="defs6" /><sodipodi:namedview
     pagecolor="#ffffff"
     bordercolor="#666666"
     borderopacity="1"
     objecttolerance="10"
     gridtolerance="10"
     guidetolerance="10"
     inkscape:pageopacity="0"
     inkscape:pageshadow="2"
     inkscape:window-width="2048"
     inkscape:window-height="1124"
     id="namedview4"
     showgrid="false"
     inkscape:zoom="0.63898915"
     inkscape:cx="-3.6553667"
     inkscape:cy="184.66667"
     inkscape:window-x="0"
     inkscape:window-y="0"
     inkscape:window-maximized="1"
     inkscape:current-layer="g10" /><g
     id="g10"
     inkscape:groupmode="layer"
     inkscape:label="ink_ext_XXXXXX"
     transform="matrix(1.3333333,0,0,-1.3333333,0,799.99999)"><rect
       style="fill:#ffffff;fill-opacity:1;stroke:none;stroke-width:1.13571262;stroke-opacity:1"
       id="rect865"
       width="600"
       height="600"
       x="7.5000003e-06"
       y="-600"
       transform="scale(1,-1)" /><g
       id="g12"
       transform="matrix(0.20882049,0,0,0.20882049,48.506202,11.117033)"><path
         d="m 1547.89,2766.17 -29.75,-62.46 -1502.6009,-0.27 v -17.92 l 71.6875,-35.84 V 1072.52 L 6.57813,1054.6 v -35.85 H 400.863 v 35.85 l -80.648,17.92 v 690 h 815.465 l 44.8,-62.72 h 17.92 v 331.56 h -17.92 l -44.8,-62.73 H 320.215 v 528.71 l 1197.995,-1.12 29.68,-61.61 h 17.92 v 331.56 h -17.92"
         style="fill:#aeacac;fill-opacity:1;fill-rule:evenodd;stroke:none"
         id="path14"
         inkscape:connector-curvature="0" /><path
         d="m 2193.78,2396.12 -29.74,-62.46 -1502.61,-0.27 v -17.92 l 71.687,-35.84 V 702.473 l -80.652,-17.926 v -35.844 h 394.285 v 35.844 l -80.645,17.926 v 690.007 h 815.465 l 44.8,-62.73 h 17.92 v 331.56 h -17.92 l -44.8,-62.73 H 966.105 l 1.684,528.71 H 2164.1 l 29.68,-62.73 h 17.92 v 331.56 h -17.92"
         style="fill:#8b8889;fill-opacity:1;fill-rule:evenodd;stroke:none"
         id="path16"
         inkscape:connector-curvature="0" /><path
         d="m 1750.29,2046.38 -376.28,-0.13 v -17.93 l 71.69,-35.84 V 415.32 l -80.65,-17.922 v -35.843 h 394.29 v 35.843 l -80.65,17.922 0.6,1577.54 70.45,36.1 0.55,17.42"
         style="fill:#5c595a;fill-opacity:1;fill-rule:evenodd;stroke:none"
         id="path18"
         inkscape:connector-curvature="0" /><path
         d="m 2393.07,1685.45 -376.27,-0.13 v -17.93 l 71.68,-35.84 V 54.4023 L 2007.84,36.4805 V 0.636719 h 394.29 V 36.4805 l -80.65,17.9218 0.61,1577.5277 70.45,36.1 0.53,17.42"
         style="fill:#231f20;fill-opacity:1;fill-rule:evenodd;stroke:none"
         id="path20"
         inkscape:connector-curvature="0" /></g></g></svg>